<svg width="26" height="26" viewBox="0 0 26 26" fill="none" xmlns="http://www.w3.org/2000/svg">
<path d="M14.365 3.25C8.85083 3.09833 4.33333 7.52916 4.33333 13H2.39416C1.90666 13 1.66833 13.585 2.01499 13.9208L5.03749 16.9542C5.25416 17.1708 5.58999 17.1708 5.80666 16.9542L8.82916 13.9208C8.90402 13.8445 8.9546 13.7476 8.97452 13.6426C8.99445 13.5375 8.98282 13.4289 8.94112 13.3304C8.89941 13.2319 8.82949 13.148 8.74016 13.0892C8.65083 13.0304 8.5461 12.9994 8.43916 13H6.49999C6.49999 8.775 9.94499 5.3625 14.1917 5.41666C18.2217 5.47083 21.6125 8.86166 21.6667 12.8917C21.7208 17.1275 18.3083 20.5833 14.0833 20.5833C12.3392 20.5833 10.725 19.9875 9.44666 18.98C9.23916 18.8165 8.97882 18.735 8.71516 18.751C8.45149 18.767 8.2029 18.8793 8.01666 19.0667C7.56166 19.5217 7.59416 20.2908 8.10333 20.6808C9.80538 22.0268 11.9134 22.7562 14.0833 22.75C19.5542 22.75 23.985 18.2325 23.8333 12.7183C23.6925 7.6375 19.4458 3.39083 14.365 3.25ZM13.8125 8.66666C13.3683 8.66666 13 9.035 13 9.47916V13.4658C13 13.845 13.2058 14.2025 13.5308 14.3975L16.9108 16.4017C17.3008 16.6292 17.7992 16.4992 18.0267 16.12C18.2542 15.73 18.1242 15.2317 17.745 15.0042L14.625 13.1517V9.46833C14.625 9.035 14.2567 8.66666 13.8125 8.66666Z" fill="#3B414B"/>
</svg>
