<svg width="24" height="25" viewBox="0 0 24 25" fill="none" xmlns="http://www.w3.org/2000/svg">
<path d="M4.55 17.35V21.6L8.8 20.55L12 23.75L15.2 20.55L19.45 21.6V17.35L23.75 16.25L21.6 12L23.75 7.75L19.45 6.65V2.4L15.2 3.45L12 0.25L8.8 3.45L4.55 2.4V6.65L0.25 7.75L2.4 12L0.25 16.25L4.55 17.35ZM4.3 11.05L3.35 9.1L5.05 8.7C5.55 8.6 5.94167 8.35834 6.225 7.975C6.50833 7.59167 6.65 7.15 6.65 6.65V5.15L8.25 5.6H8.8C9.36667 5.6 9.86667 5.38333 10.3 4.95L12 3.25L13.7 4.95C14.1333 5.38333 14.6333 5.6 15.2 5.6C15.4 5.6 15.5833 5.56667 15.75 5.5L17.35 5.15V6.65C17.35 7.15 17.4917 7.59167 17.775 7.975C18.0583 8.35834 18.45 8.6 18.95 8.7L20.65 9.1L19.7 11.05C19.3667 11.6833 19.3667 12.3167 19.7 12.95L20.65 14.9L18.95 15.3C18.45 15.4 18.0583 15.6417 17.775 16.025C17.4917 16.4083 17.35 16.85 17.35 17.35V18.85L15.75 18.4H15.2C14.6333 18.4 14.1333 18.6167 13.7 19.05L12 20.75L10.3 19.05C9.86667 18.6167 9.36667 18.4 8.8 18.4C8.6 18.4 8.41667 18.4333 8.25 18.5L6.65 18.85V17.35C6.65 16.85 6.50833 16.4083 6.225 16.025C5.94167 15.6417 5.55 15.4 5.05 15.3L3.35 14.9L4.3 12.95C4.63333 12.3167 4.63333 11.6833 4.3 11.05ZM10.95 15.65L15.95 10.6C16.4167 10.1333 16.4167 9.63334 15.95 9.1C15.45 8.66667 14.95 8.66667 14.45 9.1L10.95 12.65L9.55 11.25C9.05 10.8167 8.55 10.8167 8.05 11.25C7.61667 11.75 7.61667 12.25 8.05 12.75L10.95 15.65Z" fill="#3B414B"/>
</svg>
