<svg width="21" height="21" viewBox="0 0 21 21" fill="none" xmlns="http://www.w3.org/2000/svg">
<g clip-path="url(#clip0_1_3267)">
<path d="M10.5 0C8.59961 0 6.84277 0.468262 5.22949 1.40479C3.61621 2.34131 2.34131 3.61621 1.40479 5.22949C0.468262 6.84277 0 8.59961 0 10.5C0 12.4004 0.468262 14.1572 1.40479 15.7705C2.34131 17.3838 3.61621 18.6587 5.22949 19.5952C6.84277 20.5317 8.59961 21 10.5 21C12.4004 21 14.1572 20.5317 15.7705 19.5952C17.3838 18.6587 18.6587 17.3838 19.5952 15.7705C20.5317 14.1572 21 12.4004 21 10.5C21 8.59961 20.5317 6.84277 19.5952 5.22949C18.6587 3.61621 17.3838 2.34131 15.7705 1.40479C14.1572 0.468262 12.4004 0 10.5 0ZM13.125 1.70215C13.8633 1.9209 14.5605 2.22852 15.2168 2.625C15.873 3.02148 16.4644 3.48291 16.9907 4.00928C17.5171 4.53564 17.9785 5.12695 18.375 5.7832C18.7715 6.43945 19.0791 7.13672 19.2979 7.875H15.0322C14.5674 7.06836 13.9316 6.43262 13.125 5.96777V1.70215ZM14.4375 10.5C14.4375 11.5938 14.0513 12.5234 13.2788 13.2891C12.5063 14.0547 11.5801 14.4375 10.5 14.4375C9.78906 14.4375 9.13281 14.2632 8.53125 13.9146C7.92969 13.5659 7.45117 13.0874 7.0957 12.479C6.74023 11.8706 6.5625 11.2109 6.5625 10.5C6.5625 9.41992 6.94873 8.49365 7.72119 7.72119C8.49365 6.94873 9.41992 6.5625 10.5 6.5625C11.2109 6.5625 11.8672 6.74023 12.4688 7.0957C13.0703 7.45117 13.5488 7.92969 13.9043 8.53125C14.2598 9.13281 14.4375 9.78906 14.4375 10.5ZM9.1875 1.41504C9.625 1.34668 10.0625 1.3125 10.5 1.3125C10.9375 1.3125 11.375 1.34668 11.8125 1.41504V5.43457C11.375 5.31152 10.9409 5.25 10.5103 5.25C10.0796 5.25 9.63867 5.31152 9.1875 5.43457V1.41504ZM7.875 1.70215V5.96777C7.47852 6.2002 7.11963 6.47705 6.79834 6.79834C6.47705 7.11963 6.2002 7.47852 5.96777 7.875H1.70215C2.31738 5.81055 3.51367 4.16992 5.29102 2.95312C6.09766 2.39258 6.95898 1.97559 7.875 1.70215ZM1.3125 10.5C1.3125 10.3906 1.31592 10.2812 1.32275 10.1719L1.34326 9.84375L1.37402 9.51562L1.41504 9.1875H5.43457C5.31152 9.625 5.25 10.0625 5.25 10.5C5.25 10.9375 5.30469 11.375 5.41406 11.8125H1.41504C1.34668 11.3477 1.3125 10.9102 1.3125 10.5ZM7.875 19.2979C6.39844 18.8604 5.10986 18.0913 4.00928 16.9907C2.90869 15.8901 2.13965 14.6016 1.70215 13.125H5.96777C6.43262 13.9316 7.06836 14.5674 7.875 15.0322V19.2979ZM11.8125 19.585C11.375 19.6533 10.9375 19.6875 10.5 19.6875C10.0625 19.6875 9.625 19.6533 9.1875 19.585V15.5859C9.63867 15.6953 10.0796 15.75 10.5103 15.75C10.9409 15.75 11.375 15.6953 11.8125 15.5859V19.585ZM13.125 19.2979V15.0322C13.9316 14.5674 14.5674 13.9316 15.0322 13.125H19.2979C18.9971 14.1094 18.5527 15.0151 17.9648 15.8423C17.377 16.6694 16.6694 17.3804 15.8423 17.9751C15.0151 18.5698 14.1094 19.0107 13.125 19.2979ZM15.5859 11.8125C15.6406 11.5938 15.6816 11.375 15.709 11.1562C15.7363 10.9375 15.75 10.7188 15.75 10.5C15.75 10.0625 15.6885 9.625 15.5654 9.1875H19.585C19.6533 9.65234 19.6875 10.0898 19.6875 10.5C19.6875 10.9102 19.6533 11.3477 19.585 11.8125H15.5859Z" fill="#3B414B"/>
</g>
<defs>
<clipPath id="clip0_1_3267">
<rect width="21" height="21" fill="white"/>
</clipPath>
</defs>
</svg>
