<svg width="264" height="173" viewBox="0 0 264 173" fill="none" xmlns="http://www.w3.org/2000/svg">
<g filter="url(#filter0_d_1_3373)">
<rect x="21" y="15" width="221.159" height="130.446" rx="4.49814" fill="url(#paint0_linear_1_3373)"/>
<mask id="mask0_1_3373" style="mask-type:alpha" maskUnits="userSpaceOnUse" x="21" y="15" width="222" height="131">
<rect x="21" y="15" width="221.159" height="130.446" rx="4.49814" fill="url(#paint1_linear_1_3373)"/>
</mask>
<g mask="url(#mask0_1_3373)">
<path d="M125.207 106.087C61.6511 67.537 22.8743 90.094 7.50562 111.71V161.19H256.403V117.333C236.536 133.326 170.938 133.826 125.207 106.087Z" fill="url(#paint2_linear_1_3373)"/>
</g>
<path d="M37.3134 76.8061L38.6928 75.0218L36.4887 75.1568V74.1072L38.6928 74.2571L37.3134 72.4579L38.3479 71.8731L39.3525 73.8523L40.3571 71.8731L41.3917 72.4579L40.0122 74.2571L42.2163 74.1072V75.1568L40.0122 75.0218L41.3917 76.8061L40.3571 77.4058L39.3525 75.4267L38.3479 77.4058L37.3134 76.8061ZM47.7827 76.8061L49.1621 75.0218L46.958 75.1568V74.1072L49.1621 74.2571L47.7827 72.4579L48.8172 71.8731L49.8218 73.8523L50.8264 71.8731L51.861 72.4579L50.4815 74.2571L52.6856 74.1072V75.1568L50.4815 75.0218L51.861 76.8061L50.8264 77.4058L49.8218 75.4267L48.8172 77.4058L47.7827 76.8061ZM58.252 76.8061L59.6314 75.0218L57.4273 75.1568V74.1072L59.6314 74.2571L58.252 72.4579L59.2865 71.8731L60.2911 73.8523L61.2957 71.8731L62.3303 72.4579L60.9509 74.2571L63.1549 74.1072V75.1568L60.9509 75.0218L62.3303 76.8061L61.2957 77.4058L60.2911 75.4267L59.2865 77.4058L58.252 76.8061ZM68.7213 76.8061L70.1007 75.0218L67.8966 75.1568V74.1072L70.1007 74.2571L68.7213 72.4579L69.7558 71.8731L70.7604 73.8523L71.765 71.8731L72.7996 72.4579L71.4202 74.2571L73.6242 74.1072V75.1568L71.4202 75.0218L72.7996 76.8061L71.765 77.4058L70.7604 75.4267L69.7558 77.4058L68.7213 76.8061Z" fill="white"/>
<path d="M88.2921 76.8061L89.6715 75.0218L87.4675 75.1568V74.1072L89.6715 74.2571L88.2921 72.4579L89.3267 71.8731L90.3313 73.8523L91.3359 71.8731L92.3704 72.4579L90.991 74.2571L93.1951 74.1072V75.1568L90.991 75.0218L92.3704 76.8061L91.3359 77.4058L90.3313 75.4267L89.3267 77.4058L88.2921 76.8061ZM98.7614 76.8061L100.141 75.0218L97.9368 75.1568V74.1072L100.141 74.2571L98.7614 72.4579L99.796 71.8731L100.801 73.8523L101.805 71.8731L102.84 72.4579L101.46 74.2571L103.664 74.1072V75.1568L101.46 75.0218L102.84 76.8061L101.805 77.4058L100.801 75.4267L99.796 77.4058L98.7614 76.8061ZM109.231 76.8061L110.61 75.0218L108.406 75.1568V74.1072L110.61 74.2571L109.231 72.4579L110.265 71.8731L111.27 73.8523L112.274 71.8731L113.309 72.4579L111.93 74.2571L114.134 74.1072V75.1568L111.93 75.0218L113.309 76.8061L112.274 77.4058L111.27 75.4267L110.265 77.4058L109.231 76.8061ZM119.7 76.8061L121.079 75.0218L118.875 75.1568V74.1072L121.079 74.2571L119.7 72.4579L120.735 71.8731L121.739 73.8523L122.744 71.8731L123.778 72.4579L122.399 74.2571L124.603 74.1072V75.1568L122.399 75.0218L123.778 76.8061L122.744 77.4058L121.739 75.4267L120.735 77.4058L119.7 76.8061Z" fill="white"/>
<path d="M139.271 76.8061L140.651 75.0218L138.446 75.1568V74.1072L140.651 74.2571L139.271 72.4579L140.306 71.8731L141.31 73.8523L142.315 71.8731L143.349 72.4579L141.97 74.2571L144.174 74.1072V75.1568L141.97 75.0218L143.349 76.8061L142.315 77.4058L141.31 75.4267L140.306 77.4058L139.271 76.8061ZM149.74 76.8061L151.12 75.0218L148.916 75.1568V74.1072L151.12 74.2571L149.74 72.4579L150.775 71.8731L151.78 73.8523L152.784 71.8731L153.819 72.4579L152.439 74.2571L154.643 74.1072V75.1568L152.439 75.0218L153.819 76.8061L152.784 77.4058L151.78 75.4267L150.775 77.4058L149.74 76.8061ZM160.21 76.8061L161.589 75.0218L159.385 75.1568V74.1072L161.589 74.2571L160.21 72.4579L161.244 71.8731L162.249 73.8523L163.253 71.8731L164.288 72.4579L162.909 74.2571L165.113 74.1072V75.1568L162.909 75.0218L164.288 76.8061L163.253 77.4058L162.249 75.4267L161.244 77.4058L160.21 76.8061ZM170.679 76.8061L172.058 75.0218L169.854 75.1568V74.1072L172.058 74.2571L170.679 72.4579L171.714 71.8731L172.718 73.8523L173.723 71.8731L174.757 72.4579L173.378 74.2571L175.582 74.1072V75.1568L173.378 75.0218L174.757 76.8061L173.723 77.4058L172.718 75.4267L171.714 77.4058L170.679 76.8061Z" fill="white"/>
<path d="M194.978 79.3642C193.97 79.3642 193.174 79.1213 192.589 78.6355C192.014 78.1407 191.726 77.466 191.726 76.6113C191.726 76.0716 191.861 75.5858 192.131 75.1539C192.409 74.7221 192.796 74.4072 193.291 74.2093C192.922 74.0474 192.621 73.773 192.387 73.3862C192.162 72.9903 192.05 72.5675 192.05 72.1177C192.05 71.371 192.315 70.7727 192.846 70.3229C193.386 69.8731 194.096 69.6482 194.978 69.6482C195.86 69.6482 196.566 69.8731 197.097 70.3229C197.627 70.7727 197.893 71.371 197.893 72.1177C197.893 72.5675 197.78 72.9903 197.555 73.3862C197.33 73.773 197.034 74.0474 196.665 74.2093C197.151 74.4072 197.528 74.7221 197.798 75.1539C198.077 75.5858 198.217 76.0716 198.217 76.6113C198.217 77.457 197.924 78.1272 197.339 78.622C196.764 79.1168 195.977 79.3642 194.978 79.3642ZM194.978 73.6695C195.419 73.6695 195.77 73.5436 196.03 73.2917C196.291 73.0308 196.422 72.6845 196.422 72.2526C196.422 71.8298 196.291 71.4924 196.03 71.2405C195.77 70.9797 195.419 70.8492 194.978 70.8492C194.537 70.8492 194.182 70.9797 193.912 71.2405C193.651 71.4924 193.521 71.8298 193.521 72.2526C193.521 72.6845 193.651 73.0308 193.912 73.2917C194.182 73.5436 194.537 73.6695 194.978 73.6695ZM194.978 78.1632C195.527 78.1632 195.959 78.0103 196.273 77.7044C196.588 77.3895 196.746 76.9667 196.746 76.4359C196.746 75.9141 196.588 75.5003 196.273 75.1944C195.959 74.8885 195.527 74.7356 194.978 74.7356C194.429 74.7356 193.993 74.8885 193.669 75.1944C193.354 75.4913 193.197 75.9051 193.197 76.4359C193.197 76.9667 193.354 77.3895 193.669 77.7044C193.993 78.0103 194.429 78.1632 194.978 78.1632ZM203.962 79.3642C202.901 79.3642 202.087 78.9549 201.52 78.1362C200.953 77.3085 200.67 76.0985 200.67 74.5062C200.67 72.9139 200.953 71.7084 201.52 70.8897C202.087 70.062 202.901 69.6482 203.962 69.6482C205.024 69.6482 205.834 70.062 206.391 70.8897C206.958 71.7084 207.242 72.9139 207.242 74.5062C207.242 76.0985 206.958 77.3085 206.391 78.1362C205.834 78.9549 205.024 79.3642 203.962 79.3642ZM203.962 78.2711C204.556 78.2711 205.006 77.9563 205.312 77.3265C205.618 76.6968 205.771 75.7567 205.771 74.5062C205.771 73.2467 205.618 72.3066 205.312 71.6859C205.006 71.0561 204.556 70.7413 203.962 70.7413C202.748 70.7413 202.141 71.9962 202.141 74.5062C202.141 75.7567 202.294 76.6968 202.6 77.3265C202.914 77.9563 203.369 78.2711 203.962 78.2711ZM210.882 78.0957H212.475V71.4834L210.64 72.5495V71.2271L212.988 69.7832H213.946V78.0957H215.525V79.2292H210.882V78.0957ZM222.809 77.6639H218.531V76.5034L222.579 69.7832H224.28V76.4629H225.319V77.6639H224.28V79.2292H222.809V77.6639ZM222.809 76.4629V71.6184L219.894 76.4629H222.809Z" fill="white"/>
<g clip-path="url(#clip0_1_3373)">
<path d="M48.0011 30.0296L46.4771 38.9731H48.9145L50.4397 30.0296H48.0011Z" fill="white"/>
<path d="M44.4334 30.0397L42.0461 36.1389L41.7916 35.2179C41.3208 34.1083 39.9842 32.5147 38.415 31.5104L40.5979 38.9687L43.177 38.9644L47.0156 30.0378L44.4334 30.0397Z" fill="white"/>
<path d="M40.8662 30.6797C40.7246 30.1349 40.3139 29.9726 39.8043 29.9531H36.0252L35.9939 30.1312C38.9347 30.8446 40.8807 32.5636 41.6881 34.6305L40.8662 30.6797Z" fill="white"/>
<path d="M55.3797 31.7442C56.1772 31.7317 56.7552 31.906 57.2041 32.0865L57.4241 32.19L57.7539 30.2516C57.2711 30.0704 56.5145 29.876 55.5703 29.876C53.1617 29.876 51.4641 31.0891 51.4509 32.8275C51.4352 34.1121 52.6602 34.8293 53.5855 35.2574C54.5353 35.6963 54.8538 35.9752 54.8494 36.3671C54.8419 36.9658 54.0921 37.2403 53.3918 37.2403C52.4157 37.2403 51.8973 37.1056 51.0967 36.772L50.7826 36.6291L50.4397 38.6308C51.0102 38.881 52.0628 39.096 53.1555 39.1073C55.7177 39.1073 57.3827 37.9086 57.4003 36.0511C57.4109 35.0349 56.7608 34.2594 55.3522 33.6231C54.4996 33.2081 53.978 32.9322 53.983 32.5134C53.983 32.1417 54.4256 31.7442 55.3797 31.7442Z" fill="white"/>
<path d="M64.0094 30.0397H62.1261C61.5412 30.0397 61.1062 30.1989 60.8491 30.7819L57.23 38.9782H59.7897C59.7897 38.9782 60.2072 37.876 60.3018 37.6347C60.5821 37.6347 63.069 37.6384 63.4232 37.6384C63.4959 37.9506 63.7204 38.9782 63.7204 38.9782H65.9816L64.0094 30.0397ZM61.0034 35.8041C61.204 35.2907 61.9744 33.3046 61.9744 33.3046C61.9613 33.3291 62.1732 32.7874 62.2992 32.4508L62.4634 33.2219C62.4634 33.2219 62.9305 35.3571 63.0283 35.8041H61.0034Z" fill="white"/>
</g>
<path opacity="0.8" d="M38.9807 114.303C38.4409 114.303 37.9701 114.174 37.5682 113.916C37.1724 113.652 36.8665 113.278 36.6506 112.792C36.4347 112.306 36.3268 111.73 36.3268 111.064C36.3268 110.405 36.4347 109.832 36.6506 109.346C36.8725 108.86 37.1874 108.486 37.5952 108.222C38.0031 107.958 38.4799 107.826 39.0256 107.826C39.4395 107.826 39.8143 107.91 40.1502 108.078C40.486 108.24 40.7409 108.468 40.9149 108.761L40.546 109.157C40.2102 108.641 39.7094 108.384 39.0436 108.384C38.3959 108.384 37.8921 108.617 37.5323 109.085C37.1784 109.553 37.0015 110.213 37.0015 111.064C37.0015 111.904 37.1754 112.561 37.5233 113.035C37.8771 113.508 38.3659 113.745 38.9897 113.745C39.7094 113.745 40.2281 113.487 40.546 112.972L40.9149 113.367C40.7469 113.661 40.492 113.892 40.1502 114.06C39.8083 114.222 39.4185 114.303 38.9807 114.303ZM45.3546 112.738H42.8266L42.3588 114.213H41.6391L43.7712 107.916H44.41L46.5421 114.213H45.8224L45.3546 112.738ZM45.1836 112.189L44.0951 108.725L42.9976 112.189H45.1836ZM47.7781 107.916H49.6313C50.297 107.916 50.7918 108.054 51.1157 108.33C51.4456 108.599 51.6105 109.013 51.6105 109.571C51.6105 109.991 51.4995 110.348 51.2776 110.642C51.0557 110.929 50.7498 111.121 50.36 111.217V111.235C50.4919 111.313 50.5999 111.403 50.6839 111.505C50.7678 111.601 50.8398 111.724 50.8998 111.874L51.8444 114.213H51.1247L50.315 112.144C50.2011 111.862 50.0631 111.67 49.9012 111.568C49.7453 111.46 49.5114 111.406 49.1995 111.406H48.4438V114.213H47.7781V107.916ZM49.6043 110.858C50.0661 110.858 50.408 110.753 50.6299 110.543C50.8578 110.333 50.9717 110.015 50.9717 109.589C50.9717 109.211 50.8548 108.932 50.6209 108.752C50.393 108.566 50.0421 108.474 49.5683 108.474H48.4438V110.858H49.6043ZM53.2701 107.916H55.2043C56.026 107.916 56.6347 108.165 57.0306 108.662C57.4264 109.154 57.6243 109.913 57.6243 110.938C57.6243 111.712 57.5314 112.339 57.3455 112.819C57.1655 113.299 56.8806 113.652 56.4908 113.88C56.101 114.102 55.5882 114.213 54.9524 114.213H53.2701V107.916ZM55.0964 113.655C55.7441 113.655 56.2179 113.439 56.5178 113.008C56.8177 112.57 56.9676 111.88 56.9676 110.938C56.9676 110.081 56.8267 109.457 56.5448 109.067C56.2629 108.671 55.8101 108.474 55.1863 108.474H53.9359V113.655H55.0964ZM61.6448 107.916H62.3105V110.759H65.5132V107.916H66.1789V114.213H65.5132V111.316H62.3105V114.213H61.6448V107.916ZM70.1927 114.303C69.6649 114.303 69.2031 114.171 68.8073 113.907C68.4114 113.643 68.1056 113.269 67.8897 112.783C67.6797 112.297 67.5748 111.724 67.5748 111.064C67.5748 110.405 67.6797 109.832 67.8897 109.346C68.1056 108.86 68.4114 108.486 68.8073 108.222C69.2031 107.958 69.6649 107.826 70.1927 107.826C70.7205 107.826 71.1793 107.958 71.5691 108.222C71.965 108.486 72.2678 108.86 72.4778 109.346C72.6937 109.832 72.8016 110.405 72.8016 111.064C72.8016 111.724 72.6937 112.297 72.4778 112.783C72.2678 113.269 71.965 113.643 71.5691 113.907C71.1793 114.171 70.7205 114.303 70.1927 114.303ZM70.1927 113.754C70.5885 113.754 70.9334 113.646 71.2273 113.43C71.5212 113.209 71.7461 112.897 71.902 112.495C72.0579 112.087 72.1359 111.61 72.1359 111.064C72.1359 110.519 72.0579 110.045 71.902 109.643C71.7461 109.235 71.5212 108.923 71.2273 108.707C70.9334 108.486 70.5885 108.375 70.1927 108.375C69.7969 108.375 69.452 108.486 69.1581 108.707C68.8643 108.923 68.6363 109.235 68.4744 109.643C68.3185 110.045 68.2405 110.519 68.2405 111.064C68.2405 111.61 68.3185 112.087 68.4744 112.495C68.6363 112.897 68.8643 113.209 69.1581 113.43C69.452 113.646 69.7969 113.754 70.1927 113.754ZM74.2015 107.916H74.8672V113.655H77.935V114.213H74.2015V107.916ZM79.3424 107.916H81.2766C82.0982 107.916 82.707 108.165 83.1028 108.662C83.4987 109.154 83.6966 109.913 83.6966 110.938C83.6966 111.712 83.6036 112.339 83.4177 112.819C83.2378 113.299 82.9529 113.652 82.563 113.88C82.1732 114.102 81.6604 114.213 81.0247 114.213H79.3424V107.916ZM81.1686 113.655C81.8163 113.655 82.2902 113.439 82.59 113.008C82.8899 112.57 83.0398 111.88 83.0398 110.938C83.0398 110.081 82.8989 109.457 82.617 109.067C82.3351 108.671 81.8823 108.474 81.2586 108.474H80.0081V113.655H81.1686ZM85.2034 107.916H88.8379V108.474H85.8692V110.615H88.5231V111.181H85.8692V113.655H88.8379V114.213H85.2034V107.916ZM90.4144 107.916H92.2676C92.9333 107.916 93.4281 108.054 93.752 108.33C94.0818 108.599 94.2468 109.013 94.2468 109.571C94.2468 109.991 94.1358 110.348 93.9139 110.642C93.692 110.929 93.3861 111.121 92.9963 111.217V111.235C93.1282 111.313 93.2362 111.403 93.3202 111.505C93.4041 111.601 93.4761 111.724 93.5361 111.874L94.4807 114.213H93.761L92.9513 112.144C92.8374 111.862 92.6994 111.67 92.5375 111.568C92.3815 111.46 92.1476 111.406 91.8358 111.406H91.0801V114.213H90.4144V107.916ZM92.2406 110.858C92.7024 110.858 93.0443 110.753 93.2662 110.543C93.4941 110.333 93.608 110.015 93.608 109.589C93.608 109.211 93.4911 108.932 93.2572 108.752C93.0293 108.566 92.6784 108.474 92.2046 108.474H91.0801V110.858H92.2406Z" fill="white"/>
<path d="M36.9055 122.311H38.213V129.64H42.2433V130.708H36.9055V122.311ZM44.234 123.786C43.9861 123.786 43.7902 123.718 43.6463 123.583C43.5023 123.447 43.4304 123.263 43.4304 123.031C43.4304 122.799 43.5023 122.615 43.6463 122.479C43.7902 122.343 43.9861 122.275 44.234 122.275C44.4819 122.275 44.6778 122.343 44.8218 122.479C44.9737 122.615 45.0497 122.799 45.0497 123.031C45.0497 123.263 44.9737 123.447 44.8218 123.583C44.6778 123.718 44.4819 123.786 44.234 123.786ZM43.6463 124.71H44.8338V130.708H43.6463V124.71ZM46.503 126.245C46.503 125.502 46.487 124.99 46.455 124.71H47.5585C47.5985 125.006 47.6185 125.358 47.6185 125.766H47.6545C47.8144 125.406 48.0743 125.122 48.4342 124.914C48.802 124.698 49.2098 124.59 49.6577 124.59C51.0651 124.59 51.7688 125.502 51.7688 127.325V130.708H50.5813V127.313C50.5813 126.713 50.4813 126.269 50.2814 125.982C50.0815 125.694 49.7736 125.55 49.3578 125.55C48.87 125.55 48.4701 125.726 48.1583 126.077C47.8464 126.429 47.6905 126.877 47.6905 127.421V130.708H46.503V126.245ZM55.4508 130.828C54.6671 130.828 54.0514 130.54 53.6036 129.964C53.1557 129.388 52.9318 128.6 52.9318 127.601C52.9318 126.993 53.0358 126.465 53.2437 126.018C53.4516 125.562 53.7475 125.21 54.1313 124.962C54.5152 124.714 54.963 124.59 55.4748 124.59C56.1945 124.59 56.7703 124.878 57.2021 125.454H57.2261V121.807H58.4136V129.172C58.4136 129.94 58.4256 130.452 58.4496 130.708H57.346C57.33 130.532 57.322 130.232 57.322 129.808H57.298C57.1141 130.112 56.8542 130.36 56.5184 130.552C56.1825 130.736 55.8266 130.828 55.4508 130.828ZM55.6427 129.892C56.1225 129.892 56.5064 129.752 56.7942 129.472C57.0821 129.184 57.2261 128.796 57.2261 128.309V127.169C57.2261 126.673 57.0781 126.269 56.7822 125.958C56.4944 125.646 56.1145 125.49 55.6427 125.49C55.1629 125.49 54.7871 125.678 54.5152 126.054C54.2513 126.421 54.1193 126.945 54.1193 127.625C54.1193 128.337 54.2513 128.892 54.5152 129.292C54.7871 129.692 55.1629 129.892 55.6427 129.892ZM61.6297 130.828C61.1579 130.828 60.7341 130.732 60.3583 130.54C59.9824 130.348 59.7185 130.092 59.5666 129.772L60.3223 129.256C60.4582 129.464 60.6421 129.628 60.8741 129.748C61.106 129.868 61.3579 129.928 61.6297 129.928C61.9416 129.928 62.1975 129.84 62.3974 129.664C62.6053 129.488 62.7093 129.264 62.7093 128.992C62.7093 128.776 62.6293 128.6 62.4694 128.465C62.3095 128.321 62.0136 128.169 61.5818 128.009C60.886 127.745 60.3943 127.477 60.1064 127.205C59.8265 126.925 59.6865 126.581 59.6865 126.173C59.6865 125.694 59.8745 125.31 60.2503 125.022C60.6342 124.734 61.1419 124.59 61.7737 124.59C62.1815 124.59 62.5534 124.674 62.8892 124.842C63.2251 125.01 63.489 125.246 63.6809 125.55L62.9732 126.077C62.8372 125.886 62.6653 125.742 62.4574 125.646C62.2575 125.542 62.0336 125.49 61.7857 125.49C61.5138 125.49 61.2899 125.55 61.114 125.67C60.946 125.79 60.8621 125.946 60.8621 126.137C60.8621 126.337 60.95 126.505 61.1259 126.641C61.3019 126.769 61.6457 126.933 62.1575 127.133C62.7973 127.381 63.2451 127.641 63.501 127.913C63.7649 128.177 63.8968 128.52 63.8968 128.944C63.8968 129.512 63.6889 129.968 63.2731 130.312C62.8572 130.656 62.3095 130.828 61.6297 130.828ZM70.4774 128.165H66.2072C66.2711 128.708 66.4431 129.12 66.723 129.4C67.0108 129.68 67.4027 129.82 67.8985 129.82C68.6022 129.82 69.1699 129.544 69.6018 128.992L70.2615 129.628C70.0296 130.004 69.6977 130.3 69.2659 130.516C68.8341 130.724 68.3583 130.828 67.8385 130.828C66.9429 130.828 66.2431 130.556 65.7394 130.012C65.2436 129.46 64.9957 128.696 64.9957 127.721C64.9957 126.745 65.2476 125.982 65.7514 125.43C66.2551 124.87 66.9469 124.59 67.8265 124.59C68.6582 124.59 69.3059 124.866 69.7697 125.418C70.2415 125.962 70.4774 126.725 70.4774 127.709V128.165ZM69.3499 127.229C69.3499 126.709 69.2099 126.301 68.93 126.006C68.6502 125.71 68.2663 125.562 67.7785 125.562C67.3227 125.562 66.9589 125.714 66.687 126.018C66.4151 126.321 66.2511 126.753 66.1952 127.313H69.3499V127.229ZM76.308 124.71L74.0889 130.876C73.5532 132.355 72.6975 133.095 71.522 133.095C71.2981 133.095 71.0422 133.059 70.7543 132.987V132.063C70.9222 132.127 71.1222 132.159 71.3541 132.159C71.7459 132.159 72.0778 132.019 72.3497 131.739C72.6215 131.459 72.8814 130.995 73.1293 130.348L70.8983 124.71H72.1697L73.6811 129.064L75.0245 124.71H76.308ZM81.5297 130.828C81.1539 130.828 80.786 130.764 80.4262 130.636C80.0663 130.508 79.7704 130.336 79.5385 130.12L80.0543 129.208C80.2382 129.376 80.4582 129.512 80.714 129.616C80.9699 129.712 81.2218 129.76 81.4697 129.76C81.9175 129.76 82.2374 129.612 82.4293 129.316C82.6293 129.012 82.7292 128.516 82.7292 127.829V122.311H84.0487V128.021C84.0487 128.988 83.8448 129.7 83.4369 130.156C83.0291 130.604 82.3934 130.828 81.5297 130.828ZM88.4062 130.828C87.4866 130.828 86.7629 130.552 86.2351 130C85.7074 129.44 85.4435 128.676 85.4435 127.709C85.4435 126.741 85.7074 125.982 86.2351 125.43C86.7629 124.87 87.4866 124.59 88.4062 124.59C89.3259 124.59 90.0496 124.87 90.5773 125.43C91.1131 125.982 91.381 126.741 91.381 127.709C91.381 128.676 91.1131 129.44 90.5773 130C90.0496 130.552 89.3259 130.828 88.4062 130.828ZM88.4062 129.928C88.958 129.928 89.3938 129.732 89.7137 129.34C90.0336 128.94 90.1935 128.397 90.1935 127.709C90.1935 127.021 90.0336 126.481 89.7137 126.089C89.3938 125.69 88.958 125.49 88.4062 125.49C87.8465 125.49 87.4107 125.69 87.0988 126.089C86.7869 126.481 86.631 127.021 86.631 127.709C86.631 128.397 86.7869 128.94 87.0988 129.34C87.4107 129.732 87.8465 129.928 88.4062 129.928ZM92.553 121.807H93.7405V125.574C93.9164 125.27 94.1803 125.03 94.5321 124.854C94.884 124.678 95.2718 124.59 95.6957 124.59C96.3914 124.59 96.9352 124.822 97.327 125.286C97.7188 125.75 97.9147 126.393 97.9147 127.217V130.708H96.7272V127.253C96.7272 126.685 96.6153 126.249 96.3914 125.946C96.1755 125.642 95.8596 125.49 95.4438 125.49C94.948 125.49 94.5401 125.67 94.2203 126.03C93.9004 126.389 93.7405 126.857 93.7405 127.433V130.708H92.553V121.807ZM99.3397 126.245C99.3397 125.502 99.3237 124.99 99.2917 124.71H100.395C100.435 125.006 100.455 125.358 100.455 125.766H100.491C100.651 125.406 100.911 125.122 101.271 124.914C101.639 124.698 102.047 124.59 102.494 124.59C103.902 124.59 104.606 125.502 104.606 127.325V130.708H103.418V127.313C103.418 126.713 103.318 126.269 103.118 125.982C102.918 125.694 102.61 125.55 102.195 125.55C101.707 125.55 101.307 125.726 100.995 126.077C100.683 126.429 100.527 126.877 100.527 127.421V130.708H99.3397V126.245ZM107.832 130.828C107.36 130.828 106.936 130.732 106.56 130.54C106.184 130.348 105.921 130.092 105.769 129.772L106.524 129.256C106.66 129.464 106.844 129.628 107.076 129.748C107.308 129.868 107.56 129.928 107.832 129.928C108.144 129.928 108.4 129.84 108.599 129.664C108.807 129.488 108.911 129.264 108.911 128.992C108.911 128.776 108.831 128.6 108.671 128.465C108.511 128.321 108.216 128.169 107.784 128.009C107.088 127.745 106.596 127.477 106.308 127.205C106.028 126.925 105.889 126.581 105.889 126.173C105.889 125.694 106.076 125.31 106.452 125.022C106.836 124.734 107.344 124.59 107.976 124.59C108.384 124.59 108.755 124.674 109.091 124.842C109.427 125.01 109.691 125.246 109.883 125.55L109.175 126.077C109.039 125.886 108.867 125.742 108.659 125.646C108.459 125.542 108.236 125.49 107.988 125.49C107.716 125.49 107.492 125.55 107.316 125.67C107.148 125.79 107.064 125.946 107.064 126.137C107.064 126.337 107.152 126.505 107.328 126.641C107.504 126.769 107.848 126.933 108.36 127.133C108.999 127.381 109.447 127.641 109.703 127.913C109.967 128.177 110.099 128.52 110.099 128.944C110.099 129.512 109.891 129.968 109.475 130.312C109.059 130.656 108.511 130.828 107.832 130.828ZM113.926 130.828C113.007 130.828 112.283 130.552 111.755 130C111.227 129.44 110.963 128.676 110.963 127.709C110.963 126.741 111.227 125.982 111.755 125.43C112.283 124.87 113.007 124.59 113.926 124.59C114.846 124.59 115.569 124.87 116.097 125.43C116.633 125.982 116.901 126.741 116.901 127.709C116.901 128.676 116.633 129.44 116.097 130C115.569 130.552 114.846 130.828 113.926 130.828ZM113.926 129.928C114.478 129.928 114.914 129.732 115.234 129.34C115.553 128.94 115.713 128.397 115.713 127.709C115.713 127.021 115.553 126.481 115.234 126.089C114.914 125.69 114.478 125.49 113.926 125.49C113.366 125.49 112.931 125.69 112.619 126.089C112.307 126.481 112.151 127.021 112.151 127.709C112.151 128.397 112.307 128.94 112.619 129.34C112.931 129.732 113.366 129.928 113.926 129.928ZM118.061 126.245C118.061 125.502 118.045 124.99 118.013 124.71H119.116C119.156 125.006 119.176 125.358 119.176 125.766H119.212C119.372 125.406 119.632 125.122 119.992 124.914C120.36 124.698 120.768 124.59 121.216 124.59C122.623 124.59 123.327 125.502 123.327 127.325V130.708H122.139V127.313C122.139 126.713 122.039 126.269 121.839 125.982C121.639 125.694 121.332 125.55 120.916 125.55C120.428 125.55 120.028 125.726 119.716 126.077C119.404 126.429 119.248 126.877 119.248 127.421V130.708H118.061V126.245Z" fill="white"/>
<path opacity="0.8" d="M193.131 107.916H196.766V108.474H193.797V110.615H196.451V111.181H193.797V113.655H196.766V114.213H193.131V107.916ZM199.817 110.983L198 107.916H198.774L200.222 110.507L201.662 107.916H202.444L200.618 110.983L202.534 114.213H201.77L200.222 111.514L198.675 114.213H197.901L199.817 110.983ZM203.94 107.916H205.712C206.384 107.916 206.893 108.075 207.241 108.393C207.595 108.71 207.772 109.175 207.772 109.787C207.772 110.435 207.589 110.932 207.223 111.28C206.863 111.628 206.345 111.802 205.667 111.802H204.605V114.213H203.94V107.916ZM205.775 111.235C206.207 111.235 206.539 111.112 206.773 110.867C207.007 110.621 207.124 110.27 207.124 109.814C207.124 109.37 207.004 109.037 206.764 108.815C206.524 108.587 206.171 108.474 205.703 108.474H204.605V111.235H205.775ZM209.523 107.916H210.189V114.213H209.523V107.916ZM212.209 107.916H214.062C214.728 107.916 215.223 108.054 215.547 108.33C215.876 108.599 216.041 109.013 216.041 109.571C216.041 109.991 215.93 110.348 215.709 110.642C215.487 110.929 215.181 111.121 214.791 111.217V111.235C214.923 111.313 215.031 111.403 215.115 111.505C215.199 111.601 215.271 111.724 215.331 111.874L216.275 114.213H215.556L214.746 112.144C214.632 111.862 214.494 111.67 214.332 111.568C214.176 111.46 213.942 111.406 213.63 111.406H212.875V114.213H212.209V107.916ZM214.035 110.858C214.497 110.858 214.839 110.753 215.061 110.543C215.289 110.333 215.403 110.015 215.403 109.589C215.403 109.211 215.286 108.932 215.052 108.752C214.824 108.566 214.473 108.474 213.999 108.474H212.875V110.858H214.035ZM217.701 107.916H221.336V108.474H218.367V110.615H221.021V111.181H218.367V113.655H221.336V114.213H217.701V107.916ZM224.468 114.303C224.078 114.303 223.71 114.219 223.362 114.051C223.02 113.883 222.744 113.655 222.534 113.367L222.948 112.954C223.134 113.188 223.368 113.379 223.65 113.529C223.938 113.673 224.219 113.745 224.495 113.745C224.879 113.745 225.188 113.646 225.422 113.448C225.662 113.251 225.782 112.99 225.782 112.666C225.782 112.36 225.686 112.099 225.494 111.883C225.302 111.667 224.954 111.436 224.45 111.19C224.013 110.974 223.668 110.777 223.416 110.597C223.17 110.411 222.993 110.222 222.885 110.03C222.783 109.838 222.732 109.619 222.732 109.373C222.732 108.899 222.897 108.524 223.227 108.249C223.563 107.967 224.01 107.826 224.567 107.826C224.951 107.826 225.305 107.913 225.629 108.087C225.953 108.261 226.193 108.491 226.349 108.779L225.899 109.094C225.761 108.878 225.572 108.707 225.332 108.581C225.092 108.45 224.837 108.384 224.567 108.384C224.213 108.384 223.929 108.474 223.713 108.653C223.503 108.827 223.398 109.061 223.398 109.355C223.398 109.529 223.437 109.679 223.515 109.805C223.593 109.925 223.734 110.054 223.938 110.192C224.147 110.324 224.465 110.498 224.891 110.714C225.449 110.989 225.848 111.274 226.088 111.568C226.328 111.862 226.448 112.21 226.448 112.612C226.448 112.948 226.364 113.245 226.196 113.502C226.034 113.76 225.803 113.958 225.503 114.096C225.203 114.234 224.858 114.303 224.468 114.303Z" fill="white"/>
<path d="M198.321 130.828C197.378 130.828 196.654 130.464 196.15 129.736C195.646 129 195.395 127.925 195.395 126.509C195.395 125.094 195.646 124.022 196.15 123.295C196.654 122.559 197.378 122.191 198.321 122.191C199.265 122.191 199.985 122.559 200.48 123.295C200.984 124.022 201.236 125.094 201.236 126.509C201.236 127.925 200.984 129 200.48 129.736C199.985 130.464 199.265 130.828 198.321 130.828ZM198.321 129.856C198.849 129.856 199.249 129.576 199.521 129.016C199.793 128.457 199.929 127.621 199.929 126.509C199.929 125.39 199.793 124.554 199.521 124.002C199.249 123.443 198.849 123.163 198.321 123.163C197.242 123.163 196.702 124.278 196.702 126.509C196.702 127.621 196.838 128.457 197.11 129.016C197.39 129.576 197.794 129.856 198.321 129.856ZM205.05 130.828C204.154 130.828 203.446 130.612 202.927 130.18C202.415 129.74 202.159 129.14 202.159 128.381C202.159 127.901 202.279 127.469 202.519 127.085C202.767 126.701 203.111 126.421 203.55 126.245C203.223 126.101 202.955 125.858 202.747 125.514C202.547 125.162 202.447 124.786 202.447 124.386C202.447 123.722 202.683 123.191 203.155 122.791C203.634 122.391 204.266 122.191 205.05 122.191C205.833 122.191 206.461 122.391 206.933 122.791C207.405 123.191 207.641 123.722 207.641 124.386C207.641 124.786 207.541 125.162 207.341 125.514C207.141 125.858 206.877 126.101 206.549 126.245C206.981 126.421 207.317 126.701 207.557 127.085C207.805 127.469 207.929 127.901 207.929 128.381C207.929 129.132 207.669 129.728 207.149 130.168C206.637 130.608 205.937 130.828 205.05 130.828ZM205.05 125.766C205.442 125.766 205.753 125.654 205.985 125.43C206.217 125.198 206.333 124.89 206.333 124.506C206.333 124.13 206.217 123.83 205.985 123.607C205.753 123.375 205.442 123.259 205.05 123.259C204.658 123.259 204.342 123.375 204.102 123.607C203.87 123.83 203.754 124.13 203.754 124.506C203.754 124.89 203.87 125.198 204.102 125.43C204.342 125.654 204.658 125.766 205.05 125.766ZM205.05 129.76C205.538 129.76 205.921 129.624 206.201 129.352C206.481 129.072 206.621 128.696 206.621 128.225C206.621 127.761 206.481 127.393 206.201 127.121C205.921 126.849 205.538 126.713 205.05 126.713C204.562 126.713 204.174 126.849 203.886 127.121C203.606 127.385 203.466 127.753 203.466 128.225C203.466 128.696 203.606 129.072 203.886 129.352C204.174 129.624 204.562 129.76 205.05 129.76ZM212.726 122.011H213.913L209.355 131.223H208.168L212.726 122.011ZM214.44 129.664C214.999 129.256 215.563 128.772 216.131 128.213C216.699 127.653 217.178 127.053 217.57 126.413C217.97 125.774 218.17 125.166 218.17 124.59C218.17 124.182 218.054 123.858 217.822 123.619C217.59 123.379 217.27 123.259 216.863 123.259C216.479 123.259 216.111 123.355 215.759 123.547C215.407 123.738 215.127 123.994 214.919 124.314L214.224 123.559C214.488 123.135 214.851 122.803 215.315 122.563C215.787 122.315 216.307 122.191 216.875 122.191C217.69 122.191 218.33 122.403 218.794 122.827C219.266 123.243 219.501 123.818 219.501 124.554C219.501 125.354 219.186 126.197 218.554 127.085C217.93 127.965 217.138 128.836 216.179 129.7H219.849V130.708H214.44V129.664ZM221.936 129.7H223.351V123.822L221.72 124.77V123.595L223.807 122.311H224.659V129.7H226.062V130.708H221.936V129.7Z" fill="white"/>
<g clip-path="url(#clip1_1_3373)">
<path d="M213.67 32.9926C212.846 32.9926 212.171 33.6673 212.171 34.4919C212.171 35.3166 212.846 35.9913 213.67 35.9913C214.495 35.9913 215.17 35.3166 215.17 34.4919C215.17 33.6673 214.495 32.9926 213.67 32.9926ZM222.667 32.9926C221.842 32.9926 221.167 33.6673 221.167 34.4919C221.167 35.3166 221.842 35.9913 222.667 35.9913C223.491 35.9913 224.166 35.3166 224.166 34.4919C224.166 33.6673 223.491 32.9926 222.667 32.9926ZM218.168 32.9926C217.344 32.9926 216.669 33.6673 216.669 34.4919C216.669 35.3166 217.344 35.9913 218.168 35.9913C218.993 35.9913 219.668 35.3166 219.668 34.4919C219.668 33.6673 218.993 32.9926 218.168 32.9926Z" fill="white"/>
</g>
</g>
<defs>
<filter id="filter0_d_1_3373" x="0.00867271" y="0.00619459" width="263.141" height="172.429" filterUnits="userSpaceOnUse" color-interpolation-filters="sRGB">
<feFlood flood-opacity="0" result="BackgroundImageFix"/>
<feColorMatrix in="SourceAlpha" type="matrix" values="0 0 0 0 0 0 0 0 0 0 0 0 0 0 0 0 0 0 127 0" result="hardAlpha"/>
<feOffset dy="5.99752"/>
<feGaussianBlur stdDeviation="10.4957"/>
<feColorMatrix type="matrix" values="0 0 0 0 0.52549 0 0 0 0 0.462745 0 0 0 0 0.984314 0 0 0 0.6 0"/>
<feBlend mode="normal" in2="BackgroundImageFix" result="effect1_dropShadow_1_3373"/>
<feBlend mode="normal" in="SourceGraphic" in2="effect1_dropShadow_1_3373" result="shape"/>
</filter>
<linearGradient id="paint0_linear_1_3373" x1="21" y1="15" x2="240.968" y2="147.424" gradientUnits="userSpaceOnUse">
<stop stop-color="#8676FB"/>
<stop offset="1" stop-color="#AB7BFF"/>
</linearGradient>
<linearGradient id="paint1_linear_1_3373" x1="21" y1="15" x2="240.968" y2="147.424" gradientUnits="userSpaceOnUse">
<stop stop-color="#8676FB"/>
<stop offset="1" stop-color="#AB7BFF"/>
</linearGradient>
<linearGradient id="paint2_linear_1_3373" x1="7.50563" y1="81.3359" x2="159.095" y2="249.11" gradientUnits="userSpaceOnUse">
<stop stop-color="#8E7EFB"/>
<stop offset="0.991396" stop-color="#A777F1"/>
</linearGradient>
<clipPath id="clip0_1_3373">
<rect width="29.9876" height="29.9876" fill="white" transform="translate(35.9939 19.4982)"/>
</clipPath>
<clipPath id="clip1_1_3373">
<rect width="17.9926" height="17.9926" fill="white" transform="translate(209.172 25.4957)"/>
</clipPath>
</defs>
</svg>
