<svg width="47" height="47" viewBox="0 0 47 47" fill="none" xmlns="http://www.w3.org/2000/svg">
<path d="M23.5 39.48C14.664 39.48 7.52002 32.336 7.52002 23.5C7.52002 14.664 14.664 7.51999 23.5 7.51999C32.336 7.51999 39.48 14.664 39.48 23.5C39.48 32.336 32.336 39.48 23.5 39.48ZM23.5 9.39999C15.698 9.39999 9.40002 15.698 9.40002 23.5C9.40002 31.302 15.698 37.6 23.5 37.6C31.302 37.6 37.6 31.302 37.6 23.5C37.6 15.698 31.302 9.39999 23.5 9.39999Z" fill="black"/>
<path d="M30.346 15.3239L31.6752 16.654L16.654 31.6752L15.3248 30.346L30.346 15.3239Z" fill="black"/>
<path d="M16.654 15.3239L31.6752 30.3451L30.346 31.6752L15.3248 16.654L16.654 15.3239Z" fill="black"/>
</svg>
