<svg width="20" height="18" viewBox="0 0 20 18" fill="none" xmlns="http://www.w3.org/2000/svg">
<g clip-path="url(#clip0_1_1034)">
<path d="M13.9687 11.9736L15.0799 10.8625C15.2535 10.6889 15.5556 10.8104 15.5556 11.0604V16.109C15.5556 17.0291 14.809 17.7757 13.8889 17.7757H1.66667C0.746528 17.7757 0 17.0291 0 16.109V3.88679C0 2.96665 0.746528 2.22013 1.66667 2.22013H11.1632C11.4097 2.22013 11.5347 2.51874 11.3611 2.69582L10.25 3.80693C10.1979 3.85901 10.1285 3.88679 10.0521 3.88679H1.66667V16.109H13.8889V12.168C13.8889 12.0951 13.9167 12.0257 13.9687 11.9736ZM19.4062 4.96665L10.2882 14.0847L7.1493 14.4319C6.23958 14.5326 5.46528 13.7653 5.56597 12.8486L5.91319 9.70971L15.0312 0.591654C15.8264 -0.203484 17.1111 -0.203484 17.9028 0.591654L19.4028 2.09165C20.1979 2.88679 20.1979 4.17499 19.4062 4.96665ZM15.9757 6.03957L13.9583 4.02221L7.50694 10.4771L7.25347 12.7444L9.52083 12.491L15.9757 6.03957ZM18.2257 3.27221L16.7257 1.77221C16.5833 1.62985 16.3507 1.62985 16.2118 1.77221L15.1389 2.84512L17.1562 4.86248L18.2292 3.78957C18.3681 3.64374 18.3681 3.41457 18.2257 3.27221Z" fill="#A6AAB4"/>
</g>
<defs>
<clipPath id="clip0_1_1034">
<rect width="20" height="17.7778" fill="white"/>
</clipPath>
</defs>
</svg>
