<svg width="40" height="40" viewBox="0 0 40 40" fill="none" xmlns="http://www.w3.org/2000/svg">
<g clip-path="url(#clip0_1_3144)">
<circle cx="20" cy="20" r="20" fill="#613EEA"/>
<g clip-path="url(#clip1_1_3144)">
<path d="M20.2763 19.7269H23.5818C23.5478 18.5264 23.2966 17.3616 22.8463 16.282C22.0152 16.5233 21.1535 16.6561 20.2763 16.6796V19.7269Z" fill="white"/>
<path d="M23.1502 15.6052C23.9587 15.3263 24.7326 14.9448 25.4496 14.4541L25.6299 14.3161C24.311 13.0101 22.5417 12.1603 20.5789 12.0192L20.4359 12.1354C21.5994 13.0987 22.5193 14.2829 23.1502 15.6052Z" fill="white"/>
<path d="M20.2763 12.7256V16.1273C21.0745 16.1046 21.8586 15.9856 22.6157 15.773C22.056 14.6244 21.2653 13.5885 20.2763 12.7256Z" fill="white"/>
<path d="M23.4669 23.6523C24.3311 23.9649 25.1567 24.389 25.9201 24.9332L26.1598 25.1126C27.2576 23.7915 27.9376 22.1125 28 20.2794H24.134C24.1028 21.4496 23.8742 22.5868 23.4669 23.6523Z" fill="white"/>
<path d="M14.5504 14.4541C15.2674 14.9448 16.0416 15.3261 16.8498 15.6052C17.4807 14.2832 18.4007 13.099 19.5644 12.1354L19.4214 12.0192C17.4542 12.1605 15.681 13.014 14.361 14.3246L14.5504 14.4541Z" fill="white"/>
<path d="M19.724 12.7256C18.7347 13.5885 17.9442 14.6247 17.3846 15.7727C18.1417 15.9853 18.9258 16.1046 19.724 16.127V12.7256Z" fill="white"/>
<path d="M15.8663 20.2791H12C12.0627 22.1122 12.7424 23.7909 13.8402 25.1123L14.0749 24.937C14.8411 24.3911 15.6683 23.9657 16.5339 23.6526C16.1258 22.5862 15.8975 21.449 15.8663 20.2791Z" fill="white"/>
<path d="M16.6253 16.1112C15.7868 15.8174 14.9839 15.4196 14.2387 14.9099L13.9797 14.7326C12.801 16.0775 12.0652 17.8181 12 19.7268H15.8663C15.8997 18.4678 16.1584 17.2452 16.6253 16.1112Z" fill="white"/>
<path d="M16.4185 19.7269H19.724V16.6796C18.8463 16.6561 17.9843 16.5233 17.1538 16.2825C16.7035 17.3618 16.4522 18.5264 16.4185 19.7269Z" fill="white"/>
<path d="M19.5368 27.8461C18.3167 26.8258 17.3719 25.5657 16.7451 24.1625C15.919 24.4591 15.1296 24.8633 14.4004 25.3829L14.2102 25.5251C15.5283 26.9065 17.333 27.8179 19.3471 27.9813L19.5368 27.8461Z" fill="white"/>
<path d="M19.724 23.0507V20.2791H16.4185C16.4497 21.3888 16.6684 22.467 17.0571 23.4764C17.9167 23.2174 18.8112 23.075 19.724 23.0507Z" fill="white"/>
<path d="M25.5943 25.3791C24.8679 24.8614 24.0807 24.4582 23.256 24.1625C22.6287 25.569 21.6827 26.8303 20.4637 27.8469L20.6528 27.9813C22.667 27.8179 24.4719 26.9067 25.7901 25.5254L25.5943 25.3791Z" fill="white"/>
<path d="M25.7735 14.901C25.0225 15.4151 24.2154 15.8152 23.3744 16.1103C23.8416 17.2446 24.1003 18.4674 24.134 19.7268H28.0003C27.9348 17.812 27.1949 16.0667 26.0098 14.7202L25.7735 14.901Z" fill="white"/>
<path d="M19.724 27.2802V23.6028C18.8849 23.6263 18.063 23.7563 17.2717 23.9893C17.8357 25.2343 18.6654 26.3569 19.724 27.2802Z" fill="white"/>
<path d="M23.5818 20.2791H20.2763V23.0507C21.1894 23.075 22.0842 23.2174 22.944 23.4764C23.3317 22.4672 23.5503 21.3891 23.5818 20.2791Z" fill="white"/>
<path d="M22.7295 23.9893C21.9382 23.7563 21.1156 23.6265 20.2763 23.6028V27.2813C21.334 26.3611 22.1646 25.2373 22.7295 23.9893Z" fill="white"/>
</g>
</g>
<defs>
<clipPath id="clip0_1_3144">
<rect width="40" height="40" fill="white"/>
</clipPath>
<clipPath id="clip1_1_3144">
<rect width="16" height="16" fill="white" transform="translate(12 12)"/>
</clipPath>
</defs>
</svg>
