<svg width="22" height="21" viewBox="0 0 22 21" fill="none" xmlns="http://www.w3.org/2000/svg">
<g clip-path="url(#clip0_1_3273)">
<path d="M22 4.63319V16.6304C22 17.735 21.5397 18.7169 20.8033 19.484C20.0669 20.2204 19.1158 20.6192 18.0112 20.6192H11.9972V18.1339H18.0112C18.8396 18.1339 19.484 17.4589 19.484 16.6304V4.63319C19.484 3.80474 18.8396 3.16039 18.0112 3.16039H11.9972V0.644348H18.0112C19.1158 0.644348 20.0669 1.07392 20.8033 1.81032C21.5397 2.5774 22 3.52859 22 4.63319ZM15.4031 8.25383V13.0404C15.4031 13.5927 14.9121 14.053 14.3598 14.053H8.80613V17.8271C8.80613 18.1646 8.62203 18.4407 8.3152 18.5941C8.19246 18.6248 8.06973 18.6248 8.00836 18.6248C7.79358 18.6248 7.60948 18.5635 7.45606 18.41L0.245461 11.1994C-0.0920563 10.9233 -0.0613728 10.371 0.245461 10.0642L7.45606 2.88424C7.88563 2.42399 8.80613 2.70014 8.80613 3.43654V7.24128H14.3598C14.9121 7.24128 15.4031 7.70153 15.4031 8.25383Z" fill="#3B414B"/>
</g>
<defs>
<clipPath id="clip0_1_3273">
<rect width="22" height="20.6192" fill="white"/>
</clipPath>
</defs>
</svg>
