<svg width="20" height="23" viewBox="0 0 20 23" fill="none" xmlns="http://www.w3.org/2000/svg">
<path fill-rule="evenodd" clip-rule="evenodd" d="M9 8.12853C8.86806 7.99838 8.76443 7.84237 8.69559 7.6703C8.62676 7.49822 8.59422 7.31378 8.6 7.12853C8.6 6.72853 8.72857 6.38568 9 6.12853C9.27143 5.87139 9.6 5.72853 10 5.72853C10.4 5.72853 10.7429 5.85711 11 6.12853C11.2571 6.39996 11.4 6.72853 11.4 7.12853C11.4 7.52853 11.2714 7.87139 11 8.12853C10.7362 8.3977 10.3768 8.55174 10 8.55711C9.6 8.55711 9.25714 8.39996 9 8.12853ZM11.4286 11.4142C11.4 11.0571 11.2714 10.7285 10.9857 10.4285C10.7 10.1571 10.3857 9.99996 10 9.98568H8.57143C8.18571 10.0142 7.88571 10.1714 7.58571 10.4285C7.3 10.7142 7.15714 11.0571 7.14286 11.4142H8.57143V15.7C8.6 16.0857 8.72857 16.4142 9.01429 16.6857C9.3 16.9714 9.61429 17.1285 10 17.1285H11.4286C11.8143 17.1285 12.1143 16.9714 12.4143 16.6857C12.7 16.4142 12.8429 16.0857 12.8571 15.7H11.4286V11.4V11.4142ZM10 3.28568C5.51429 3.28568 1.85714 6.91425 1.85714 11.4C1.85714 15.8857 5.51429 19.5428 10 19.5428C14.4857 19.5428 18.1429 15.9 18.1429 11.4C18.1429 6.89996 14.4857 3.27139 10 3.27139V3.28568ZM10 1.39996C15.5143 1.39996 20 5.88568 20 11.4C20 16.9142 15.5143 21.4 10 21.4C4.48571 21.4 0 16.9428 0 11.4C0 5.85711 4.48571 1.39996 10 1.39996Z" fill="#3B414B"/>
</svg>
