<svg width="41" height="41" viewBox="0 0 41 41" fill="none" xmlns="http://www.w3.org/2000/svg">
<path d="M32.4583 15.375C32.4583 13.8046 32.149 12.2496 31.548 10.7988C30.9471 9.34791 30.0662 8.02964 28.9558 6.9192C27.8453 5.80877 26.5271 4.92792 25.0762 4.32696C23.6254 3.726 22.0704 3.41669 20.5 3.41669C18.9296 3.41669 17.3746 3.726 15.9237 4.32696C14.4729 4.92792 13.1546 5.80877 12.0441 6.9192C10.9337 8.02964 10.0529 9.34791 9.4519 10.7988C8.85094 12.2496 8.54163 13.8046 8.54163 15.375C8.54163 17.7445 9.24204 19.9482 10.4293 21.8069H10.4157C14.4473 28.1192 20.5 37.5834 20.5 37.5834L30.5843 21.8069H30.5723C31.803 19.8874 32.4575 17.6552 32.4583 15.375ZM20.5 20.5C19.1407 20.5 17.8372 19.9601 16.876 18.9989C15.9149 18.0378 15.375 16.7343 15.375 15.375C15.375 14.0158 15.9149 12.7122 16.876 11.7511C17.8372 10.79 19.1407 10.25 20.5 10.25C21.8592 10.25 23.1628 10.79 24.1239 11.7511C25.085 12.7122 25.625 14.0158 25.625 15.375C25.625 16.7343 25.085 18.0378 24.1239 18.9989C23.1628 19.9601 21.8592 20.5 20.5 20.5Z" fill="#613EEA"/>
</svg>
